<?xml version="1.0" encoding="UTF-8" standalone="no"?>
<!-- Created with Inkscape (http://www.inkscape.org/) -->

<svg
   width="128mm"
   height="128mm"
   viewBox="0 0 128 128"
   version="1.1"
   id="svg1"
   xml:space="preserve"
   inkscape:version="1.3.2 (091e20e, 2023-11-25)"
   sodipodi:docname="icon2.svg"
   xmlns:inkscape="http://www.inkscape.org/namespaces/inkscape"
   xmlns:sodipodi="http://sodipodi.sourceforge.net/DTD/sodipodi-0.dtd"
   xmlns="http://www.w3.org/2000/svg"
   xmlns:svg="http://www.w3.org/2000/svg"><sodipodi:namedview
     id="namedview1"
     pagecolor="#ffffff"
     bordercolor="#000000"
     borderopacity="0.25"
     inkscape:showpageshadow="2"
     inkscape:pageopacity="0.0"
     inkscape:pagecheckerboard="0"
     inkscape:deskcolor="#d1d1d1"
     inkscape:document-units="mm"
     inkscape:zoom="0.08958336"
     inkscape:cx="-3242.7897"
     inkscape:cy="-1328.3717"
     inkscape:window-width="1512"
     inkscape:window-height="917"
     inkscape:window-x="0"
     inkscape:window-y="65"
     inkscape:window-maximized="0"
     inkscape:current-layer="svg1" /><defs
     id="defs1" /><g
     style="fill:#000000;stroke:none;stroke-opacity:1"
     id="g2"
     transform="matrix(1.6176957,0,0,1.560496,67.614728,-30.201421)"><g
       id="g1"
       style="stroke:none;stroke-opacity:1">
	<path
   style="fill:#681cff;fill-opacity:1;stroke:none;stroke-width:0;stroke-dasharray:none;stroke-opacity:1"
   d="m 36.121335,195.88623 c 0,-0.0465 0.230709,-0.4781 0.512689,-0.95923 1.285064,-2.19262 1.990301,-4.81107 2.030913,-7.54048 l 0.02559,-1.71964 -0.898606,-0.92295 c -5.164784,-5.30473 -8.030103,-12.9653 -7.406939,-19.80281 0.47476,-5.2092 2.360155,-9.88922 5.694512,-14.1352 1.216351,-1.54891 4.024051,-4.27388 5.692273,-5.52454 8.383097,-6.28483 19.581123,-8.8692 30.465017,-7.03095 12.933141,2.18435 23.399154,10.36967 26.880436,21.0228 0.90156,2.7589 1.07671,3.98176 1.07671,7.5177 0,2.80822 -0.0435,3.43106 -0.333482,4.77134 -1.702925,7.87179 -6.80491,14.58157 -14.517954,19.09302 -7.946806,4.64819 -18.000635,6.33829 -27.41976,4.60941 -3.641418,-0.66838 -7.368867,-1.87571 -10.246319,-3.3188 -0.629226,-0.31556 -1.223811,-0.5269 -1.321294,-0.46964 -0.09749,0.0573 -0.565331,0.39992 -1.03966,0.76147 -1.817934,1.38568 -4.779042,2.84775 -6.698341,3.30736 -1.143065,0.27373 -2.49578,0.45863 -2.49578,0.34114 z"
   id="path26"
   transform="matrix(1.0272222,0,0,1.0648748,-69.324196,-117.26142)" /><path
   d="m -32.077992,94.865833 c -1.493,0 -2.943,-0.24 -4.309,-0.713 l -3.113,-1.077 2.392,-2.265 c 3.165,-2.997 3.964,-6.455 4.016,-9.046 -5.472,-6.066 -8.476,-13.635 -8.476,-21.398 0,-19.023 17.645,-34.5 39.3329999,-34.5 21.6880001,0 39.3340001,15.477 39.3340001,34.5 0,19.022 -17.646,34.498 -39.3340001,34.498 -6.458,0 -12.8269999,-1.399 -18.5049999,-4.057 -2.139,1.514 -6.462,4.058 -11.338,4.058 z m 10.871,-8.755 1.148,0.581 c 5.397,2.729 11.5609999,4.173 17.8239999,4.173 19.4830001,0 35.3340001,-13.682 35.3340001,-30.498 0,-16.818 -15.851,-30.5 -35.3340001,-30.5 -19.4829999,0 -35.3329999,13.682 -35.3329999,30.5 0,6.99 2.814,13.823 7.925,19.238 l 0.52,0.552 0.024,0.757 c 0.087,2.72 -0.401,6.407 -2.818,9.951 4.63,-0.074 8.89,-3.298 9.705,-3.95 z"
   id="path1"
   style="fill:#000080;fill-opacity:1;stroke:none;stroke-opacity:1" />
</g></g><g
     inkscape:label="Layer 1"
     inkscape:groupmode="layer"
     id="layer1"
     transform="matrix(1.0872464,0,0,1.0872464,-77.952765,-128.21008)"><path
       style="fill:#ffffff;fill-opacity:1;stroke:none;stroke-width:0.682972;stroke-dasharray:none;stroke-opacity:1"
       d="m 100.15019,209.61123 c -1.587403,-0.91052 -2.460394,-2.44067 -2.312915,-4.05403 0.209378,-2.29065 3.104005,-8.25539 10.488805,-21.61353 10.11534,-18.29734 14.78889,-24.98688 17.97201,-25.72442 0.77887,-0.18047 1.68214,0.30228 2.00966,1.07408 0.62679,1.47698 -0.17975,4.35063 -3.35563,11.95606 -1.01928,2.44086 -1.90001,4.62439 -1.95721,4.85228 -0.12961,0.51652 0.0625,0.59801 1.74236,0.73929 2.28021,0.19175 5.574,-0.53749 8.01982,-1.77558 4.25058,-2.15166 9.30167,-7.57787 10.89145,-11.70031 1.35225,-3.50651 1.55369,-7.325 0.52943,-10.03574 -0.77533,-2.05192 -3.19256,-4.55753 -5.63491,-5.84095 -2.2816,-1.19895 -3.36979,-1.38011 -8.24596,-1.37278 -6.02955,0.008 -8.65849,0.45618 -12.2167,2.0777 -3.96258,1.8058 -5.71735,3.56257 -10.71412,10.72625 -2.71007,3.88535 -4.99944,5.86467 -6.78889,5.86947 -1.534977,0.003 -3.578376,-1.75331 -4.004013,-3.44367 -1.06753,-4.23956 3.316803,-10.82775 10.353623,-15.55799 2.16788,-1.45727 6.3663,-3.54428 8.927,-4.43756 11.14673,-3.88842 23.29812,-3.20488 30.67625,1.72559 0.7844,0.52418 2.23604,1.76983 3.22587,2.76812 3.84784,3.88071 4.96486,6.21348 5.2443,10.9522 0.34283,5.81344 -1.78972,11.0967 -6.44876,15.97653 -4.09411,4.28812 -9.02302,7.36373 -15.79422,9.85557 -4.1603,1.531 -4.01842,1.45977 -4.40096,2.20962 -0.54793,1.07403 -0.47611,3.1399 0.17694,5.08908 0.92397,2.75791 2.65556,5.96234 4.53418,8.39088 1.31166,1.6956 2.57049,2.75564 3.61009,3.03994 0.96707,0.26449 5.80742,0.0622 7.23731,-0.30243 2.46704,-0.62913 5.33697,-2.31961 9.1935,-5.41527 3.57233,-2.86752 4.72727,-3.38628 5.46132,-2.45309 2.28975,2.91094 -3.2511,9.34336 -11.49195,13.34118 -8.04476,3.90266 -13.44832,3.28002 -18.91278,-2.17928 -2.96325,-2.96045 -5.81151,-7.96181 -8.4027,-14.75456 -0.71315,-1.86952 -1.43294,-3.56746 -1.59953,-3.7732 l -0.30292,-0.37407 -0.50252,0.5388 c -0.49475,0.53044 -1.49104,2.7614 -4.46347,9.99474 -1.89449,4.61021 -3.65759,8.28475 -4.62161,9.63203 -1.51161,2.11258 -3.50089,3.76755 -5.11117,4.25221 -1.28158,0.38574 -2.00282,0.32509 -3.01098,-0.25316 z"
       id="path23" /></g></svg>
